<?xml version="1.0" encoding="UTF-8" standalone="no"?>
<!-- Created with Inkscape (http://www.inkscape.org/) -->

<svg
   xmlns:dc="http://purl.org/dc/elements/1.1/"
   xmlns:cc="http://creativecommons.org/ns#"
   xmlns:rdf="http://www.w3.org/1999/02/22-rdf-syntax-ns#"
   xmlns:svg="http://www.w3.org/2000/svg"
   xmlns="http://www.w3.org/2000/svg"
   xmlns:sodipodi="http://sodipodi.sourceforge.net/DTD/sodipodi-0.dtd"
   xmlns:inkscape="http://www.inkscape.org/namespaces/inkscape"
   width="297mm"
   height="210mm"
   viewBox="0 0 1052.3622 744.09448"
   id="svg32900"
   version="1.1"
   inkscape:version="0.91 r13725"
   sodipodi:docname="gun.svg">
  <defs
     id="defs32902" />
  <sodipodi:namedview
     id="base"
     pagecolor="#ffffff"
     bordercolor="#666666"
     borderopacity="1.0"
     inkscape:pageopacity="0.0"
     inkscape:pageshadow="2"
     inkscape:zoom="2.8"
     inkscape:cx="398.84589"
     inkscape:cy="214.09996"
     inkscape:document-units="px"
     inkscape:current-layer="layer1"
     showgrid="false"
     inkscape:snap-path-clip="false"
     objecttolerance="11"
     inkscape:snap-perpendicular="false"
     inkscape:snap-tangential="false"
     guidetolerance="20"
     inkscape:snap-path-mask="false"
     gridtolerance="5"
     inkscape:snap-bbox="true"
     inkscape:bbox-nodes="true"
     inkscape:bbox-paths="true"
     inkscape:snap-bbox-edge-midpoints="true"
     inkscape:snap-bbox-midpoints="true"
     inkscape:snap-object-midpoints="true"
     inkscape:window-width="1366"
     inkscape:window-height="768"
     inkscape:window-x="0"
     inkscape:window-y="0"
     inkscape:window-maximized="0" />
  <metadata
     id="metadata32905">
    <rdf:RDF>
      <cc:Work
         rdf:about="">
        <dc:format>image/svg+xml</dc:format>
        <dc:type
           rdf:resource="http://purl.org/dc/dcmitype/StillImage" />
        <dc:title></dc:title>
      </cc:Work>
    </rdf:RDF>
  </metadata>
  <g
     inkscape:label="Layer 1"
     inkscape:groupmode="layer"
     id="layer1"
     transform="translate(0,-308.26772)">
    <path
       inkscape:connector-curvature="0"
       style="fill:#241c1c"
       d="m 796.01169,658.86021 0,256.28522 -171.89249,0 0,-256.28522 z"
       id="rect32908-7-5-7" />
    <path
       inkscape:connector-curvature="0"
       style="fill:#ac9393"
       d="m 255.71429,634.50506 575.98214,0 0,39.28572 -575.98214,0 z"
       id="rect32908-7" />
    <path
       style="fill:#ff7f2a"
       d="m 248.57143,520.82585 542.80819,0 c 30.25175,24.15813 40.07805,73.45596 40.4061,117.35847 l -583.21429,0 z"
       id="rect32908"
       inkscape:connector-curvature="0"
       sodipodi:nodetypes="ccccc" />
    <path
       style="fill:#00ff00"
       d="m 248.51758,527.79618 0,73.8057 106.45079,0 36.03565,30.10865 240.36208,0 0,-103.91435 z"
       id="rect32921"
       inkscape:connector-curvature="0"
       sodipodi:nodetypes="ccccccc" />
    <path
       inkscape:connector-curvature="0"
       style="fill:#483737"
       d="m 240.71429,526.90789 13.96796,0 0,104.51596 -13.96796,0 z"
       id="rect32908-3" />
    <path
       style="fill:#483737"
       d="M 256.34375 205.26562 L 256.34375 214.6875 L 313.38281 214.6875 L 313.38281 205.26562 L 256.34375 205.26562 z "
       transform="translate(0,308.26772)"
       id="rect32908-3-6" />
    <path
       inkscape:connector-curvature="0"
       style="fill:#6c5353"
       d="m 417.00894,647.44353 415.26785,0 0,38.40878 -415.26785,0 z"
       id="rect32908-7-5" />
    <rect
       style="fill:#6c5353"
       id="rect32995"
       width="9.0913725"
       height="105.05588"
       x="642.45703"
       y="528.09308" />
    <rect
       style="fill:#6c5353"
       id="rect32995-3"
       width="9.0913725"
       height="105.05588"
       x="658.53827"
       y="528.11334" />
    <rect
       style="fill:#6c5353"
       id="rect32995-5"
       width="9.0913725"
       height="105.05588"
       x="674.57886"
       y="528.6286" />
    <rect
       style="fill:#6c5353"
       id="rect32995-3-6"
       width="9.0913725"
       height="105.05588"
       x="690.6601"
       y="528.64886" />
    <rect
       style="fill:#6c5353"
       id="rect32995-2"
       width="9.0913725"
       height="105.05588"
       x="707.20575"
       y="528.29993" />
    <rect
       style="fill:#6c5353"
       id="rect32995-3-9"
       width="9.0913725"
       height="105.05588"
       x="723.28699"
       y="528.32019" />
    <rect
       style="fill:#6c5353"
       id="rect32995-5-1"
       width="9.0913725"
       height="105.05588"
       x="739.32758"
       y="528.83545" />
    <rect
       style="fill:#6c5353"
       id="rect32995-3-6-2"
       width="9.0913725"
       height="105.05588"
       x="755.40881"
       y="528.85571" />
    <path
       style="fill:#241c1c"
       d="m 290,796.64789 221.42857,0 0,107.14286 -221.42857,0 z"
       id="rect33069" />
    <path
       inkscape:connector-curvature="0"
       style="fill:#ffaaaa"
       d="m 310.66667,818.79075 11.42856,0 155,0 13.66668,0 0,13.57142 0,36.42857 0,12.85715 -12.59526,0 -155,0 -12.49999,0 0,-51.78572 z"
       id="rect33069-0"
       sodipodi:nodetypes="cccccccccccc" />
  </g>
</svg>
